<svg width="108" height="24" viewBox="0 0 108 24" fill="none" xmlns="http://www.w3.org/2000/svg">
<mask id="mask0_17_12" style="mask-type:luminance" maskUnits="userSpaceOnUse" x="0" y="0" width="108" height="24">
<path d="M108 0H0V24H108V0Z" fill="white"/>
</mask>
<g mask="url(#mask0_17_12)">
<path d="M0.960007 23H9.85601V22.552C6.65601 22.136 5.69601 20.792 5.69601 17.56V2.87198H5.88801L14.208 23.032H15.36L22.816 2.87198H22.976V20.728C22.976 22.008 22.176 22.456 19.904 22.552V23H30.944V22.552C28.256 22.456 27.616 21.944 27.616 20.728V2.96798C27.616 1.75198 28.256 1.20798 30.944 1.11198V0.695984H22.784L16.736 17.144H16.576L9.98401 0.695984H0.960007V1.11198C3.71201 1.17598 4.89601 2.64798 4.89601 4.56798V17.56C4.89601 20.792 3.96801 22.168 0.960007 22.552V23Z" fill="white"/>
<path d="M52.128 23.352H53.664V6.10398C53.664 2.93598 54.528 1.55998 57.536 1.11198V0.695984H48.448V1.11198C51.68 1.49598 52.864 2.93598 52.864 6.10398V16.728H52.832L40.512 0.695984H32.96V1.11198C35.712 1.23998 36.896 2.87198 36.896 4.82398V17.56C36.896 20.792 35.968 22.168 32.96 22.552V23H41.984V22.552C38.72 22.2 37.696 20.792 37.696 17.56V4.72798H37.728L52.128 23.352Z" fill="white"/>
<path d="M63.6 23H75.696V22.552C72.848 22.488 71.984 21.944 71.984 20.728V1.27198H72.752C75.216 1.27198 77.136 3.73598 79.376 8.08799L79.856 8.02398L79.696 0.695984H59.568L59.376 8.02398L59.856 8.08799C62.128 3.63999 64.08 1.27198 66.512 1.27198H67.312V20.728C67.312 21.944 66.416 22.488 63.6 22.552V23Z" fill="white"/>
<path d="M102.128 23.352H103.664V6.10398C103.664 2.93598 104.528 1.55998 107.536 1.11198V0.695984H98.448V1.11198C101.68 1.49598 102.864 2.93598 102.864 6.10398V16.728H102.832L90.512 0.695984H82.96V1.11198C85.712 1.23998 86.896 2.87198 86.896 4.82398V17.56C86.896 20.792 85.968 22.168 82.96 22.552V23H91.984V22.552C88.72 22.2 87.696 20.792 87.696 17.56V4.72798H87.728L102.128 23.352Z" fill="white"/>
</g>
</svg>
